<svg xmlns="http://www.w3.org/2000/svg" version="1.1" xmlns:xlink="http://www.w3.org/1999/xlink" xmlns:svgjs="http://svgjs.dev/svgjs" width="1000" height="1000"><style>
    #light-icon {
      display: inline;
    }
    #dark-icon {
      display: none;
    }

    @media (prefers-color-scheme: dark) {
      #light-icon {
        display: none;
      }
      #dark-icon {
        display: inline;
      }
    }
  </style><g id="light-icon"><svg xmlns="http://www.w3.org/2000/svg" version="1.1" xmlns:xlink="http://www.w3.org/1999/xlink" xmlns:svgjs="http://svgjs.dev/svgjs" width="1000" height="1000"><g clip-path="url(#SvgjsClipPath1057)"><rect width="1000" height="1000" fill="#ffffff"></rect><g transform="matrix(1.7320016165348422,0,0,1.7320016165348422,50,50.04330004041333)"><svg xmlns="http://www.w3.org/2000/svg" version="1.1" xmlns:xlink="http://www.w3.org/1999/xlink" xmlns:svgjs="http://svgjs.dev/svgjs" width="519.63" height="519.58"><svg id="Layer_2" data-name="Layer 2" xmlns="http://www.w3.org/2000/svg" viewBox="0 0 519.63 519.58">
  <g id="Layer_1-2" data-name="Layer 1">
    <path d="m519.63,259.75c0,143.52-116.42,259.86-260.02,259.84C116.15,519.56-.06,403.06,0,259.34.06,115.98,116.66-.1,260.52,0c142.8.1,259.1,116.69,259.11,259.75Zm-259.92,253.36c16.78-.03,33.41-1.56,49.85-4.97,58.78-12.19,107.94-40.96,145.77-87.53,47.99-59.08,66.02-126.86,54.29-202.11-7.23-46.39-26.68-87.46-57.16-123.14C392.99,25.75,301.24-6.74,211.69,11.25c-76.84,15.43-134.78,58.01-173.56,126.13-17.39,30.55-27.09,63.69-30.61,98.66-.35,3.46-.48,6.38,3.65,7.45.29.08.52.4.78.61,4.88,3.89,6.71,9.25,6.83,15.19.18,8.08-2.31,14.95-10.02,18.89-1.32.68-1.56,1.48-1.37,2.76,1.67,11.01,2.7,22.16,5.07,33.02,25.41,116.35,128.29,199.12,247.22,199.14ZM6.79,271.66c6.86-4.27,5.89-20.31,0-22.67v22.67Z" style="fill: #fff; stroke-width: 0px;"></path>
    <path d="m259.7,513.1c-118.93-.02-221.81-82.8-247.22-199.14-2.37-10.86-3.4-22.01-5.07-33.02-.19-1.28.04-2.09,1.37-2.76,7.71-3.94,10.19-10.82,10.02-18.89-.13-5.94-1.95-11.3-6.83-15.19-.26-.21-.49-.53-.78-.61-4.13-1.08-4-4-3.65-7.45,3.52-34.97,13.21-68.11,30.61-98.66C76.92,69.26,134.85,26.68,211.69,11.25c89.55-17.99,181.3,14.5,240.75,84.1,30.48,35.68,49.93,76.75,57.16,123.14,11.73,75.25-6.3,143.04-54.29,202.11-37.83,46.57-86.99,75.34-145.77,87.53-16.43,3.41-33.07,4.94-49.85,4.97Zm-47.63-275.01c.85,1.1,1.36,1.73,1.83,2.39,8.9,12.35,17.78,24.72,26.71,37.05.53.73,1.4,1.56,2.2,1.66,1.86.25,3.77.08,5.77.08v-53.43h-7.01v41.22c-.83-1.1-1.33-1.75-1.81-2.42-8.85-12.39-17.69-24.78-26.57-37.15-.53-.73-1.39-1.59-2.18-1.7-1.86-.25-3.78-.08-5.82-.08v53.36h6.89v-40.99Zm163.22,26c-.29,3.88.96,7.39,3.42,10.01,7.43,7.9,25.64,8.2,33.49.56,7.68-7.47,5.36-19.59-4.58-23.36-3.01-1.14-6.24-1.68-9.37-2.51-3.76-1-7.64-1.71-11.23-3.13-3.55-1.41-4.72-4.93-3.53-8.54,1.39-4.23,6.01-6.56,12.64-6.38,6.07.16,10.37,2.76,11.51,6.98.11.4.02.9.23,1.21.28.41.75.96,1.17.98,1.97.1,3.94.05,6.01.05-.12-5.15-2.01-9.18-6.19-11.57-8.85-5.08-17.95-5.15-26.72.16-4.8,2.91-6.75,7.63-6.3,13.24.45,5.55,3.71,8.91,8.71,10.75,2.02.74,4.12,1.26,6.21,1.8,4.57,1.18,9.33,1.87,13.7,3.56,5.5,2.12,6.57,8.99,2.03,12.79-2.1,1.75-5.09,2.99-7.82,3.33-10.06,1.25-15.67-2.55-16.83-9.9h-6.55Zm-58.6,14.92c2.75-10.13,5.49-20.24,8.23-30.36l.58.04c2.75,10.16,5.5,20.31,8.26,30.49h8.46c3.6-12.58,7.19-25.1,10.83-37.79h-6.83c-2.56,10.1-5.1,20.11-7.64,30.13-.77-.8-1.07-1.62-1.31-2.45-2.45-8.64-4.86-17.29-7.38-25.91-.22-.74-1.11-1.73-1.77-1.8-2.22-.23-4.47-.09-6.81-.09-2.9,10.21-5.76,20.29-8.83,31.07-.42-1.37-.64-1.98-.8-2.61-2.23-8.78-4.43-17.58-6.72-26.35-.2-.78-.95-1.92-1.57-2-1.91-.26-3.88-.1-6.02-.1.29,1.1.47,1.82.68,2.54,2.71,9.43,5.42,18.86,8.12,28.29q2.18,7.61,10.03,7.1c.08,0,.15-.06.48-.2Zm-214.4.15v-56.79h-6.5v23.88c-1.96-1.56-3.72-3.53-5.92-4.61-6.28-3.09-15.03-.75-19.31,4.92-4.65,6.15-5.37,13.09-3.69,20.37,2.25,9.74,10.28,14.82,20.04,12.84,3.74-.76,6.59-2.83,9.07-5.84v5.21h6.31Zm393.57-37.88c-2.08,0-3.5.14-4.88-.03-2.29-.28-3.84.55-5.34,2.3-4.05,4.74-8.31,9.31-12.49,13.93-.46.51-1,.95-1.97,1.86v-36.85h-6.59v56.63h6.66c0-3.39-.24-6.65.06-9.85.35-3.62,3.8-5.06,5.84-7.79,3.86,5.62,7.46,10.91,11.11,16.16.44.63,1.11,1.5,1.72,1.55,2.33.18,4.68.07,7.46.07-5.39-7.88-10.46-15.27-15.62-22.81,4.58-4.94,9.08-9.8,14.05-15.17Zm-202.25,20.02c-.11-2.13-.14-3.85-.3-5.57-.62-6.43-3.4-11.54-9.6-14.01-6.4-2.55-12.65-1.86-18.08,2.58-5.8,4.74-7.22,11.24-6.85,18.39.73,13.8,13.92,21.68,26.34,15.63,4.33-2.11,7.11-5.48,8.01-10.46h-6.63c-2.49,5.27-6.68,7.39-11.96,6.12-5.28-1.27-8.64-6.18-8.52-12.69h27.58Zm-236.27,17.81c0-9.4.28-18.7-.12-27.98-.2-4.61-3.12-8.03-7.62-9.61-4.88-1.72-9.82-1.7-14.62.38-4.78,2.07-7.77,6.74-7.21,11.15h5.96c.22-.7.42-1.33.62-1.96,1.06-3.28,3.58-4.67,6.77-5.03,3.21-.37,6.21.13,8.25,2.96,2.71,3.77,1.62,6.59-2.82,7.51-.57.12-1.15.17-1.72.3-4.2.96-8.55,1.53-12.56,3-5.02,1.84-6.96,5.95-6.31,11.44.51,4.31,3.75,7.59,8.6,8.49,6.24,1.16,11.86.1,16.55-5.58v5.09c1.95,0,3.61,0,5.27,0,.31,0,.63-.1.96-.16Zm54.39-10.76c-.04,4.34,1.47,7.49,5.01,9.31,7.14,3.66,14.45,3.65,21.47-.26,4.13-2.3,5.47-6.32,4.93-10.9-.53-4.48-3.43-6.82-7.57-7.88-1.37-.35-2.74-.65-4.12-.95-3.08-.66-6.26-1.03-9.23-2.02-3.81-1.27-4.37-5.56-1.29-8.12,4.86-4.05,13.15-1.78,15.12,4.17h6.24c-.07-4.01-1.59-7.17-5.04-8.95-6.66-3.45-13.46-3.48-19.96.4-3.96,2.36-5.4,6.2-4.81,10.71.53,4.12,3.26,6.38,6.99,7.62,1.1.36,2.24.62,3.37.85,3.17.65,6.37,1.18,9.53,1.9,2.29.52,3.94,1.82,4.02,4.4.08,2.54-1.17,4.32-3.47,5.24-3.53,1.4-7.24,1.67-10.66,0-1.61-.78-2.66-2.7-3.97-4.1-.45-.48-.87-1.3-1.37-1.35-1.71-.17-3.45-.06-5.17-.06Zm334.12-45.98v56.74h6.54v-56.74h-6.54Zm-12.1,56.8v-37.68h-6.63c0,12.35,0,24.49,0,36.64,0,.31.09.62.16,1.04h6.47Zm-6.92-49.3h7.21v-7.37h-7.21v7.37Z" style="stroke-width: 0px;"></path>
    <path d="m6.79,271.66v-22.67c5.89,2.35,6.86,18.4,0,22.67Z" style="stroke-width: 0px;"></path>
    <path d="m212.07,238.09v40.99h-6.89v-53.36c2.04,0,3.96-.17,5.82.08.8.11,1.66.97,2.18,1.7,8.89,12.36,17.72,24.76,26.57,37.15.48.67.99,1.32,1.81,2.42v-41.22h7.01v53.43c-2,0-3.91.17-5.77-.08-.8-.11-1.67-.94-2.2-1.66-8.93-12.33-17.81-24.69-26.71-37.05-.47-.66-.99-1.29-1.83-2.39Z" style="fill: #fff; stroke-width: 0px;"></path>
    <path d="m375.29,264.09h6.55c1.16,7.35,6.76,11.15,16.83,9.9,2.73-.34,5.73-1.58,7.82-3.33,4.55-3.8,3.47-10.67-2.03-12.79-4.38-1.69-9.13-2.38-13.7-3.56-2.09-.54-4.19-1.06-6.21-1.8-5-1.84-8.26-5.2-8.71-10.75-.46-5.61,1.49-10.34,6.3-13.24,8.77-5.31,17.87-5.24,26.72-.16,4.17,2.4,6.06,6.42,6.19,11.57-2.07,0-4.04.06-6.01-.05-.41-.02-.89-.56-1.17-.98-.21-.31-.12-.81-.23-1.21-1.14-4.21-5.44-6.82-11.51-6.98-6.63-.18-11.25,2.15-12.64,6.38-1.19,3.61-.02,7.14,3.53,8.54,3.59,1.42,7.47,2.13,11.23,3.13,3.12.83,6.36,1.37,9.37,2.51,9.94,3.77,12.26,15.89,4.58,23.36-7.85,7.64-26.05,7.34-33.49-.56-2.47-2.62-3.71-6.14-3.42-10.01Z" style="fill: #fff; stroke-width: 0px;"></path>
    <path d="m316.7,279.01c-.33.14-.4.2-.48.2q-7.86.51-10.03-7.1c-2.7-9.43-5.42-18.86-8.12-28.29-.2-.71-.38-1.43-.68-2.54,2.14,0,4.11-.17,6.02.1.62.08,1.37,1.22,1.57,2,2.29,8.77,4.49,17.56,6.72,26.35.16.63.38,1.24.8,2.61,3.06-10.78,5.93-20.85,8.83-31.07,2.34,0,4.59-.14,6.81.09.66.07,1.55,1.06,1.77,1.8,2.52,8.62,4.93,17.27,7.38,25.91.24.84.54,1.65,1.31,2.45,2.54-10.02,5.08-20.04,7.64-30.13h6.83c-3.64,12.69-7.23,25.21-10.83,37.79h-8.46c-2.76-10.18-5.51-20.33-8.26-30.49l-.58-.04c-2.74,10.12-5.48,20.23-8.23,30.36Z" style="fill: #fff; stroke-width: 0px;"></path>
    <path d="m102.29,279.16h-6.31v-5.21c-2.48,3.01-5.33,5.08-9.07,5.84-9.77,1.98-17.8-3.1-20.04-12.84-1.68-7.28-.96-14.22,3.69-20.37,4.28-5.67,13.03-8.01,19.31-4.92,2.2,1.08,3.96,3.05,5.92,4.61v-23.88h6.5v56.79Zm-29.6-18.93c.19.06.37.13.56.19.06,1.08.07,2.17.2,3.24.72,5.83,4.5,9.95,9.66,10.55,5.18.6,9.71-2.28,11.48-7.62,1.56-4.73,1.53-9.52-.62-14.11-1.71-3.67-4.63-5.84-8.73-6.14-4.21-.3-7.66,1.37-9.56,5.06-1.41,2.73-2.02,5.87-2.98,8.83Z" style="fill: #fff; stroke-width: 0px;"></path>
    <path d="m495.87,241.27c-4.97,5.36-9.47,10.22-14.05,15.17,5.17,7.55,10.23,14.94,15.62,22.81-2.78,0-5.13.11-7.46-.07-.62-.05-1.28-.92-1.72-1.55-3.65-5.25-7.25-10.54-11.11-16.16-2.04,2.74-5.49,4.17-5.84,7.79-.31,3.2-.06,6.45-.06,9.85h-6.66v-56.63h6.59v36.85c.97-.91,1.51-1.35,1.97-1.86,4.19-4.63,8.44-9.19,12.49-13.93,1.5-1.75,3.06-2.58,5.34-2.3,1.38.17,2.8.03,4.88.03Z" style="fill: #fff; stroke-width: 0px;"></path>
    <path d="m293.62,261.29h-27.58c-.12,6.51,3.24,11.42,8.52,12.69,5.28,1.27,9.48-.85,11.96-6.12h6.63c-.9,4.97-3.69,8.35-8.01,10.46-12.42,6.05-25.61-1.83-26.34-15.63-.38-7.16,1.05-13.65,6.85-18.39,5.43-4.44,11.67-5.12,18.08-2.58,6.2,2.46,8.98,7.58,9.6,14.01.16,1.71.19,3.44.3,5.57Zm-27.2-5.41h19.76c.19-5.18-2.9-8.94-7.69-9.53-6.07-.76-10.72,2.84-12.07,9.53Z" style="fill: #fff; stroke-width: 0px;"></path>
    <path d="m57.35,279.1c-.33.06-.64.16-.96.16-1.66.02-3.32,0-5.27,0v-5.09c-4.69,5.68-10.31,6.74-16.55,5.58-4.85-.9-8.09-4.18-8.6-8.49-.65-5.49,1.29-9.6,6.31-11.44,4.01-1.47,8.36-2.04,12.56-3,.57-.13,1.15-.18,1.72-.3,4.44-.93,5.53-3.75,2.82-7.51-2.04-2.84-5.04-3.33-8.25-2.96-3.19.36-5.71,1.75-6.77,5.03-.2.63-.4,1.25-.62,1.96h-5.96c-.55-4.41,2.43-9.07,7.21-11.15,4.8-2.08,9.74-2.1,14.62-.38,4.5,1.58,7.43,5.01,7.62,9.61.4,9.28.12,18.59.12,27.98Zm-6.82-18.58c-2.12.47-4.05.91-5.98,1.34-2.75.61-5.57,1.01-8.23,1.9-2.76.92-3.88,3.12-3.56,5.86.29,2.56,1.88,4.15,4.72,4.71,8.48,1.68,14.57-4.79,13.05-13.81Z" style="fill: #fff; stroke-width: 0px;"></path>
    <path d="m111.74,268.34c1.72,0,3.46-.1,5.17.06.5.05.92.87,1.37,1.35,1.31,1.4,2.36,3.32,3.97,4.1,3.41,1.66,7.13,1.39,10.66,0,2.31-.91,3.55-2.69,3.47-5.24-.08-2.59-1.73-3.88-4.02-4.4-3.16-.71-6.35-1.25-9.53-1.9-1.14-.23-2.28-.49-3.37-.85-3.73-1.24-6.46-3.5-6.99-7.62-.59-4.51.85-8.35,4.81-10.71,6.5-3.87,13.3-3.84,19.96-.4,3.45,1.78,4.97,4.94,5.04,8.95h-6.24c-1.96-5.96-10.25-8.22-15.12-4.17-3.08,2.56-2.51,6.85,1.29,8.12,2.97.99,6.15,1.36,9.23,2.02,1.38.3,2.76.6,4.12.95,4.14,1.06,7.04,3.4,7.57,7.88.54,4.58-.8,8.6-4.93,10.9-7.02,3.91-14.33,3.92-21.47.26-3.54-1.82-5.05-4.97-5.01-9.31Z" style="fill: #fff; stroke-width: 0px;"></path>
    <path d="m445.86,222.36h6.54v56.74h-6.54v-56.74Z" style="fill: #fff; stroke-width: 0px;"></path>
    <path d="m433.76,279.16h-6.47c-.06-.41-.16-.73-.16-1.04,0-12.15,0-24.29,0-36.64h6.63v37.68Z" style="fill: #fff; stroke-width: 0px;"></path>
    <path d="m426.84,229.86v-7.37h7.21v7.37h-7.21Z" style="fill: #fff; stroke-width: 0px;"></path>
    <path d="m72.69,260.22c.97-2.96,1.57-6.1,2.98-8.83,1.91-3.7,5.35-5.37,9.56-5.06,4.1.3,7.01,2.47,8.73,6.14,2.15,4.59,2.18,9.38.62,14.11-1.76,5.34-6.29,8.23-11.48,7.62-5.15-.6-8.94-4.72-9.66-10.55-.13-1.07-.14-2.16-.2-3.24-.19-.06-.37-.13-.56-.19Z" style="stroke-width: 0px;"></path>
    <path d="m266.42,255.88c1.34-6.69,6-10.29,12.07-9.53,4.79.6,7.88,4.35,7.69,9.53h-19.76Z" style="stroke-width: 0px;"></path>
    <path d="m50.52,260.52c1.53,9.03-4.56,15.5-13.05,13.81-2.84-.56-4.43-2.15-4.72-4.71-.31-2.75.81-4.94,3.56-5.86,2.66-.89,5.48-1.29,8.23-1.9,1.93-.43,3.86-.86,5.98-1.34Z" style="stroke-width: 0px;"></path>
  </g>
</svg></svg></g></g><defs><clipPath id="SvgjsClipPath1057"><rect width="1000" height="1000" x="0" y="0" rx="500" ry="500"></rect></clipPath></defs></svg></g><g id="dark-icon"><svg xmlns="http://www.w3.org/2000/svg" version="1.1" xmlns:xlink="http://www.w3.org/1999/xlink" xmlns:svgjs="http://svgjs.dev/svgjs" width="1000" height="1000"><g clip-path="url(#SvgjsClipPath1058)"><rect width="1000" height="1000" fill="#ffffff"></rect><g transform="matrix(1.7320016165348422,0,0,1.7320016165348422,50,50.04330004041333)"><svg xmlns="http://www.w3.org/2000/svg" version="1.1" xmlns:xlink="http://www.w3.org/1999/xlink" xmlns:svgjs="http://svgjs.dev/svgjs" width="519.63" height="519.58"><svg id="Layer_2" data-name="Layer 2" xmlns="http://www.w3.org/2000/svg" viewBox="0 0 519.63 519.58">
  <g id="Layer_1-2" data-name="Layer 1">
    <path d="m519.63,259.75c0,143.52-116.42,259.86-260.02,259.84C116.15,519.56-.06,403.06,0,259.34.06,115.98,116.66-.1,260.52,0c142.8.1,259.1,116.69,259.11,259.75Zm-259.92,253.36c16.78-.03,33.41-1.56,49.85-4.97,58.78-12.19,107.94-40.96,145.77-87.53,47.99-59.08,66.02-126.86,54.29-202.11-7.23-46.39-26.68-87.46-57.16-123.14C392.99,25.75,301.24-6.74,211.69,11.25c-76.84,15.43-134.78,58.01-173.56,126.13-17.39,30.55-27.09,63.69-30.61,98.66-.35,3.46-.48,6.38,3.65,7.45.29.08.52.4.78.61,4.88,3.89,6.71,9.25,6.83,15.19.18,8.08-2.31,14.95-10.02,18.89-1.32.68-1.56,1.48-1.37,2.76,1.67,11.01,2.7,22.16,5.07,33.02,25.41,116.35,128.29,199.12,247.22,199.14ZM6.79,271.66c6.86-4.27,5.89-20.31,0-22.67v22.67Z" style="fill: #fff; stroke-width: 0px;"></path>
    <path d="m259.7,513.1c-118.93-.02-221.81-82.8-247.22-199.14-2.37-10.86-3.4-22.01-5.07-33.02-.19-1.28.04-2.09,1.37-2.76,7.71-3.94,10.19-10.82,10.02-18.89-.13-5.94-1.95-11.3-6.83-15.19-.26-.21-.49-.53-.78-.61-4.13-1.08-4-4-3.65-7.45,3.52-34.97,13.21-68.11,30.61-98.66C76.92,69.26,134.85,26.68,211.69,11.25c89.55-17.99,181.3,14.5,240.75,84.1,30.48,35.68,49.93,76.75,57.16,123.14,11.73,75.25-6.3,143.04-54.29,202.11-37.83,46.57-86.99,75.34-145.77,87.53-16.43,3.41-33.07,4.94-49.85,4.97Zm-47.63-275.01c.85,1.1,1.36,1.73,1.83,2.39,8.9,12.35,17.78,24.72,26.71,37.05.53.73,1.4,1.56,2.2,1.66,1.86.25,3.77.08,5.77.08v-53.43h-7.01v41.22c-.83-1.1-1.33-1.75-1.81-2.42-8.85-12.39-17.69-24.78-26.57-37.15-.53-.73-1.39-1.59-2.18-1.7-1.86-.25-3.78-.08-5.82-.08v53.36h6.89v-40.99Zm163.22,26c-.29,3.88.96,7.39,3.42,10.01,7.43,7.9,25.64,8.2,33.49.56,7.68-7.47,5.36-19.59-4.58-23.36-3.01-1.14-6.24-1.68-9.37-2.51-3.76-1-7.64-1.71-11.23-3.13-3.55-1.41-4.72-4.93-3.53-8.54,1.39-4.23,6.01-6.56,12.64-6.38,6.07.16,10.37,2.76,11.51,6.98.11.4.02.9.23,1.21.28.41.75.96,1.17.98,1.97.1,3.94.05,6.01.05-.12-5.15-2.01-9.18-6.19-11.57-8.85-5.08-17.95-5.15-26.72.16-4.8,2.91-6.75,7.63-6.3,13.24.45,5.55,3.71,8.91,8.71,10.75,2.02.74,4.12,1.26,6.21,1.8,4.57,1.18,9.33,1.87,13.7,3.56,5.5,2.12,6.57,8.99,2.03,12.79-2.1,1.75-5.09,2.99-7.82,3.33-10.06,1.25-15.67-2.55-16.83-9.9h-6.55Zm-58.6,14.92c2.75-10.13,5.49-20.24,8.23-30.36l.58.04c2.75,10.16,5.5,20.31,8.26,30.49h8.46c3.6-12.58,7.19-25.1,10.83-37.79h-6.83c-2.56,10.1-5.1,20.11-7.64,30.13-.77-.8-1.07-1.62-1.31-2.45-2.45-8.64-4.86-17.29-7.38-25.91-.22-.74-1.11-1.73-1.77-1.8-2.22-.23-4.47-.09-6.81-.09-2.9,10.21-5.76,20.29-8.83,31.07-.42-1.37-.64-1.98-.8-2.61-2.23-8.78-4.43-17.58-6.72-26.35-.2-.78-.95-1.92-1.57-2-1.91-.26-3.88-.1-6.02-.1.29,1.1.47,1.82.68,2.54,2.71,9.43,5.42,18.86,8.12,28.29q2.18,7.61,10.03,7.1c.08,0,.15-.06.48-.2Zm-214.4.15v-56.79h-6.5v23.88c-1.96-1.56-3.72-3.53-5.92-4.61-6.28-3.09-15.03-.75-19.31,4.92-4.65,6.15-5.37,13.09-3.69,20.37,2.25,9.74,10.28,14.82,20.04,12.84,3.74-.76,6.59-2.83,9.07-5.84v5.21h6.31Zm393.57-37.88c-2.08,0-3.5.14-4.88-.03-2.29-.28-3.84.55-5.34,2.3-4.05,4.74-8.31,9.31-12.49,13.93-.46.51-1,.95-1.97,1.86v-36.85h-6.59v56.63h6.66c0-3.39-.24-6.65.06-9.85.35-3.62,3.8-5.06,5.84-7.79,3.86,5.62,7.46,10.91,11.11,16.16.44.63,1.11,1.5,1.72,1.55,2.33.18,4.68.07,7.46.07-5.39-7.88-10.46-15.27-15.62-22.81,4.58-4.94,9.08-9.8,14.05-15.17Zm-202.25,20.02c-.11-2.13-.14-3.85-.3-5.57-.62-6.43-3.4-11.54-9.6-14.01-6.4-2.55-12.65-1.86-18.08,2.58-5.8,4.74-7.22,11.24-6.85,18.39.73,13.8,13.92,21.68,26.34,15.63,4.33-2.11,7.11-5.48,8.01-10.46h-6.63c-2.49,5.27-6.68,7.39-11.96,6.12-5.28-1.27-8.64-6.18-8.52-12.69h27.58Zm-236.27,17.81c0-9.4.28-18.7-.12-27.98-.2-4.61-3.12-8.03-7.62-9.61-4.88-1.72-9.82-1.7-14.62.38-4.78,2.07-7.77,6.74-7.21,11.15h5.96c.22-.7.42-1.33.62-1.96,1.06-3.28,3.58-4.67,6.77-5.03,3.21-.37,6.21.13,8.25,2.96,2.71,3.77,1.62,6.59-2.82,7.51-.57.12-1.15.17-1.72.3-4.2.96-8.55,1.53-12.56,3-5.02,1.84-6.96,5.95-6.31,11.44.51,4.31,3.75,7.59,8.6,8.49,6.24,1.16,11.86.1,16.55-5.58v5.09c1.95,0,3.61,0,5.27,0,.31,0,.63-.1.96-.16Zm54.39-10.76c-.04,4.34,1.47,7.49,5.01,9.31,7.14,3.66,14.45,3.65,21.47-.26,4.13-2.3,5.47-6.32,4.93-10.9-.53-4.48-3.43-6.82-7.57-7.88-1.37-.35-2.74-.65-4.12-.95-3.08-.66-6.26-1.03-9.23-2.02-3.81-1.27-4.37-5.56-1.29-8.12,4.86-4.05,13.15-1.78,15.12,4.17h6.24c-.07-4.01-1.59-7.17-5.04-8.95-6.66-3.45-13.46-3.48-19.96.4-3.96,2.36-5.4,6.2-4.81,10.71.53,4.12,3.26,6.38,6.99,7.62,1.1.36,2.24.62,3.37.85,3.17.65,6.37,1.18,9.53,1.9,2.29.52,3.94,1.82,4.02,4.4.08,2.54-1.17,4.32-3.47,5.24-3.53,1.4-7.24,1.67-10.66,0-1.61-.78-2.66-2.7-3.97-4.1-.45-.48-.87-1.3-1.37-1.35-1.71-.17-3.45-.06-5.17-.06Zm334.12-45.98v56.74h6.54v-56.74h-6.54Zm-12.1,56.8v-37.68h-6.63c0,12.35,0,24.49,0,36.64,0,.31.09.62.16,1.04h6.47Zm-6.92-49.3h7.21v-7.37h-7.21v7.37Z" style="stroke-width: 0px;"></path>
    <path d="m6.79,271.66v-22.67c5.89,2.35,6.86,18.4,0,22.67Z" style="stroke-width: 0px;"></path>
    <path d="m212.07,238.09v40.99h-6.89v-53.36c2.04,0,3.96-.17,5.82.08.8.11,1.66.97,2.18,1.7,8.89,12.36,17.72,24.76,26.57,37.15.48.67.99,1.32,1.81,2.42v-41.22h7.01v53.43c-2,0-3.91.17-5.77-.08-.8-.11-1.67-.94-2.2-1.66-8.93-12.33-17.81-24.69-26.71-37.05-.47-.66-.99-1.29-1.83-2.39Z" style="fill: #fff; stroke-width: 0px;"></path>
    <path d="m375.29,264.09h6.55c1.16,7.35,6.76,11.15,16.83,9.9,2.73-.34,5.73-1.58,7.82-3.33,4.55-3.8,3.47-10.67-2.03-12.79-4.38-1.69-9.13-2.38-13.7-3.56-2.09-.54-4.19-1.06-6.21-1.8-5-1.84-8.26-5.2-8.71-10.75-.46-5.61,1.49-10.34,6.3-13.24,8.77-5.31,17.87-5.24,26.72-.16,4.17,2.4,6.06,6.42,6.19,11.57-2.07,0-4.04.06-6.01-.05-.41-.02-.89-.56-1.17-.98-.21-.31-.12-.81-.23-1.21-1.14-4.21-5.44-6.82-11.51-6.98-6.63-.18-11.25,2.15-12.64,6.38-1.19,3.61-.02,7.14,3.53,8.54,3.59,1.42,7.47,2.13,11.23,3.13,3.12.83,6.36,1.37,9.37,2.51,9.94,3.77,12.26,15.89,4.58,23.36-7.85,7.64-26.05,7.34-33.49-.56-2.47-2.62-3.71-6.14-3.42-10.01Z" style="fill: #fff; stroke-width: 0px;"></path>
    <path d="m316.7,279.01c-.33.14-.4.2-.48.2q-7.86.51-10.03-7.1c-2.7-9.43-5.42-18.86-8.12-28.29-.2-.71-.38-1.43-.68-2.54,2.14,0,4.11-.17,6.02.1.62.08,1.37,1.22,1.57,2,2.29,8.77,4.49,17.56,6.72,26.35.16.63.38,1.24.8,2.61,3.06-10.78,5.93-20.85,8.83-31.07,2.34,0,4.59-.14,6.81.09.66.07,1.55,1.06,1.77,1.8,2.52,8.62,4.93,17.27,7.38,25.91.24.84.54,1.65,1.31,2.45,2.54-10.02,5.08-20.04,7.64-30.13h6.83c-3.64,12.69-7.23,25.21-10.83,37.79h-8.46c-2.76-10.18-5.51-20.33-8.26-30.49l-.58-.04c-2.74,10.12-5.48,20.23-8.23,30.36Z" style="fill: #fff; stroke-width: 0px;"></path>
    <path d="m102.29,279.16h-6.31v-5.21c-2.48,3.01-5.33,5.08-9.07,5.84-9.77,1.98-17.8-3.1-20.04-12.84-1.68-7.28-.96-14.22,3.69-20.37,4.28-5.67,13.03-8.01,19.31-4.92,2.2,1.08,3.96,3.05,5.92,4.61v-23.88h6.5v56.79Zm-29.6-18.93c.19.06.37.13.56.19.06,1.08.07,2.17.2,3.24.72,5.83,4.5,9.95,9.66,10.55,5.18.6,9.71-2.28,11.48-7.62,1.56-4.73,1.53-9.52-.62-14.11-1.71-3.67-4.63-5.84-8.73-6.14-4.21-.3-7.66,1.37-9.56,5.06-1.41,2.73-2.02,5.87-2.98,8.83Z" style="fill: #fff; stroke-width: 0px;"></path>
    <path d="m495.87,241.27c-4.97,5.36-9.47,10.22-14.05,15.17,5.17,7.55,10.23,14.94,15.62,22.81-2.78,0-5.13.11-7.46-.07-.62-.05-1.28-.92-1.72-1.55-3.65-5.25-7.25-10.54-11.11-16.16-2.04,2.74-5.49,4.17-5.84,7.79-.31,3.2-.06,6.45-.06,9.85h-6.66v-56.63h6.59v36.85c.97-.91,1.51-1.35,1.97-1.86,4.19-4.63,8.44-9.19,12.49-13.93,1.5-1.75,3.06-2.58,5.34-2.3,1.38.17,2.8.03,4.88.03Z" style="fill: #fff; stroke-width: 0px;"></path>
    <path d="m293.62,261.29h-27.58c-.12,6.51,3.24,11.42,8.52,12.69,5.28,1.27,9.48-.85,11.96-6.12h6.63c-.9,4.97-3.69,8.35-8.01,10.46-12.42,6.05-25.61-1.83-26.34-15.63-.38-7.16,1.05-13.65,6.85-18.39,5.43-4.44,11.67-5.12,18.08-2.58,6.2,2.46,8.98,7.58,9.6,14.01.16,1.71.19,3.44.3,5.57Zm-27.2-5.41h19.76c.19-5.18-2.9-8.94-7.69-9.53-6.07-.76-10.72,2.84-12.07,9.53Z" style="fill: #fff; stroke-width: 0px;"></path>
    <path d="m57.35,279.1c-.33.06-.64.16-.96.16-1.66.02-3.32,0-5.27,0v-5.09c-4.69,5.68-10.31,6.74-16.55,5.58-4.85-.9-8.09-4.18-8.6-8.49-.65-5.49,1.29-9.6,6.31-11.44,4.01-1.47,8.36-2.04,12.56-3,.57-.13,1.15-.18,1.72-.3,4.44-.93,5.53-3.75,2.82-7.51-2.04-2.84-5.04-3.33-8.25-2.96-3.19.36-5.71,1.75-6.77,5.03-.2.63-.4,1.25-.62,1.96h-5.96c-.55-4.41,2.43-9.07,7.21-11.15,4.8-2.08,9.74-2.1,14.62-.38,4.5,1.58,7.43,5.01,7.62,9.61.4,9.28.12,18.59.12,27.98Zm-6.82-18.58c-2.12.47-4.05.91-5.98,1.34-2.75.61-5.57,1.01-8.23,1.9-2.76.92-3.88,3.12-3.56,5.86.29,2.56,1.88,4.15,4.72,4.71,8.48,1.68,14.57-4.79,13.05-13.81Z" style="fill: #fff; stroke-width: 0px;"></path>
    <path d="m111.74,268.34c1.72,0,3.46-.1,5.17.06.5.05.92.87,1.37,1.35,1.31,1.4,2.36,3.32,3.97,4.1,3.41,1.66,7.13,1.39,10.66,0,2.31-.91,3.55-2.69,3.47-5.24-.08-2.59-1.73-3.88-4.02-4.4-3.16-.71-6.35-1.25-9.53-1.9-1.14-.23-2.28-.49-3.37-.85-3.73-1.24-6.46-3.5-6.99-7.62-.59-4.51.85-8.35,4.81-10.71,6.5-3.87,13.3-3.84,19.96-.4,3.45,1.78,4.97,4.94,5.04,8.95h-6.24c-1.96-5.96-10.25-8.22-15.12-4.17-3.08,2.56-2.51,6.85,1.29,8.12,2.97.99,6.15,1.36,9.23,2.02,1.38.3,2.76.6,4.12.95,4.14,1.06,7.04,3.4,7.57,7.88.54,4.58-.8,8.6-4.93,10.9-7.02,3.91-14.33,3.92-21.47.26-3.54-1.82-5.05-4.97-5.01-9.31Z" style="fill: #fff; stroke-width: 0px;"></path>
    <path d="m445.86,222.36h6.54v56.74h-6.54v-56.74Z" style="fill: #fff; stroke-width: 0px;"></path>
    <path d="m433.76,279.16h-6.47c-.06-.41-.16-.73-.16-1.04,0-12.15,0-24.29,0-36.64h6.63v37.68Z" style="fill: #fff; stroke-width: 0px;"></path>
    <path d="m426.84,229.86v-7.37h7.21v7.37h-7.21Z" style="fill: #fff; stroke-width: 0px;"></path>
    <path d="m72.69,260.22c.97-2.96,1.57-6.1,2.98-8.83,1.91-3.7,5.35-5.37,9.56-5.06,4.1.3,7.01,2.47,8.73,6.14,2.15,4.59,2.18,9.38.62,14.11-1.76,5.34-6.29,8.23-11.48,7.62-5.15-.6-8.94-4.72-9.66-10.55-.13-1.07-.14-2.16-.2-3.24-.19-.06-.37-.13-.56-.19Z" style="stroke-width: 0px;"></path>
    <path d="m266.42,255.88c1.34-6.69,6-10.29,12.07-9.53,4.79.6,7.88,4.35,7.69,9.53h-19.76Z" style="stroke-width: 0px;"></path>
    <path d="m50.52,260.52c1.53,9.03-4.56,15.5-13.05,13.81-2.84-.56-4.43-2.15-4.72-4.71-.31-2.75.81-4.94,3.56-5.86,2.66-.89,5.48-1.29,8.23-1.9,1.93-.43,3.86-.86,5.98-1.34Z" style="stroke-width: 0px;"></path>
  </g>
</svg></svg></g></g><defs><clipPath id="SvgjsClipPath1058"><rect width="1000" height="1000" x="0" y="0" rx="500" ry="500"></rect></clipPath></defs></svg></g></svg>