<?xml version="1.0" encoding="UTF-8"?><svg id="Layer_1" xmlns="http://www.w3.org/2000/svg" viewBox="0 0 506.3 126.82"><defs><style>.cls-1,.cls-2{stroke-width:0px;}.cls-2{fill:#fff;}</style></defs><path class="cls-2" d="M167.96,125.49c.44-1.1,1.39-1.19,2.33-1.21,3.44-.09,6.87-.14,10.31-.22,4.59-.11,9.19-.2,13.79-.37,4.6-.17,9.2-.42,13.81-.63,2.5-.12,5.01-.24,7.51-.34,1.77-.07,3.53-.07,5.3-.14,3.04-.12,6.08-.3,9.11-.4,4.07-.13,8.14-.24,12.21-.29,4.3-.05,8.6-.07,12.89-.03,2.59.03,5.16.25,7.75.29,6.14.1,12.29.06,18.41.22,5.41.15,10.79.54,16.2.76,4.59.19,9.2.33,13.8.43,2.25.05,4.53-.09,6.78-.02,3.38.1,6.73.37,10.11.45,3.65.09,7.32.01,10.98.05,2.98.03,5.95.16,8.94.18,3.86.02,7.73-.04,11.59-.02,4.03.02,8.06.05,12.08.16,1.97.05,3.92.29,5.88.44.24.02.48,0,.72,0,1.66-.1,3.33-.28,4.99-.28,3.93,0,7.85.09,11.78.14,3.14.04,6.27.1,9.41.11,5.18.03,10.37.03,15.55.03,6.04,0,12.09,0,18.13.02,4.02.02,8.03.12,12.04.16,5.01.05,10.03.06,15.05.11,2.14.02,4.27.12,6.41.13,2.78.01,5.56-.05,8.34-.04,1.66,0,3.32.14,4.98.13,1.99-.02,3.99-.16,5.98-.19,2.94-.04,5.88-.05,8.81-.04,1.25,0,1.34-.59,1.27-1.44-.1-1.24-.2-2.49-.12-3.74.08-1.3.37-2.61.56-3.91.31-2.15.62-4.3.91-6.45.03-.26-.17-.52-.16-.78.02-.55.12-1.1.17-1.65.07-.68.44-1.51.15-2.03-.87-1.57-.29-3.17.37-4.57.8-1.69,1.1-3.26.65-4.92-.22-.82-.39-1.49-.07-2.48.61-1.9.56-3.94.73-5.92.03-.37-.37-.75-.34-1.12.12-1.51.37-3.01.5-4.52.18-2.15.27-4.3.45-6.46.11-1.29.32-2.57.45-3.86.2-2.05.16-4.13.61-6.16.44-1.99.35-3.6-.94-5.35-5.19-7.04-10.12-14.23-15.16-21.37-4.71-6.67-9.44-13.33-14.13-20.02-3.74-5.32-7.43-10.67-11.14-16.01-.55-.79-1.22-1.33-2.43-1.32-5.52.02-11.03.01-16.55-.02-10.4-.05-20.79-.12-31.18-.18-7.04-.04-14.07-.06-21.11-.12-11.55-.11-23.09-.25-34.63-.37-3.35-.03-6.71,0-10.05-.06-3.71-.06-7.4-.31-11.12-.28-6.92.05-13.84.23-20.76.36-7.41.14-14.81.27-22.22.43-5.16.11-10.32.29-15.48.4-7.17.16-14.34.28-21.5.41-8.76.16-17.53.34-26.29.46-6.4.09-12.8.11-19.2.11-7.56,0-15.12-.04-22.67-.09-11.99-.08-23.98-.2-35.98-.27-12.87-.07-25.75-.09-38.63-.15-7.67-.04-15.34-.12-23.01-.15-4.63-.02-9.27.04-13.91.06-3.56.02-7.12.01-10.68.05-4.28.04-8.56.14-12.84.17-5.84.04-11.67.03-17.51.06-7.84.04-15.67.09-23.51.15-.91,0-1.85.05-2.74.26-.92.21-1.78.81-2.69.94-1.29.18-1.07,1.11-1.5,1.72-.02.03-.08.05-.09.07-.05.28-.21.59-.13.83.17.48.56.9.7,1.39.13.47.3,1.18.02,1.45-.7.66-.33,1.05.08,1.47-.22.43-.5.81-.59,1.21-.17.79-.64,1.95-.23,2.32.73.65.22,1.11.11,1.64-.26,1.29-.71,2.58-.82,3.87-.18,2.02-.12,4.05-.21,6.07-.04.9-.31,1.82-.26,2.7.07,1.17.49,2.31.52,3.48.04,1.9-.14,3.82-.17,5.73-.04,2.24-1.04,4.47-.62,6.72.02.13-.05.27-.08.41-.29,1.59-.74,3.19-.82,4.78-.12,2.29.17,4.57.03,6.86-.09,1.51-.65,3.02-.96,4.53-.05.26.08.54.12.82.05.39.15.79.1,1.18-.04.29-.42.57-.42.84-.01,1.88.06,3.76.06,5.65,0,1.38-.04,2.76-.14,4.14-.06.75-.35,1.5-.4,2.25-.06.86.12,1.71.03,2.57-.24,2.14-.35,4.32-.94,6.41-.41,1.44-1.07,2.9-1.2,4.33-.27,2.85-.14,5.72-.15,8.57,0,.38.1.81.31,1.13.51.78,1.15,1.46.93,2.52-.14.7,0,1.42.05,2.13.07,1.18.24,2.35.2,3.53-.06,1.86-.29,3.72-.41,5.58-.08,1.22-.1,2.44-.1,3.66,0,3.59.02,7.17.03,10.88,1.03.06,2.12.19,3.22.17,1.43-.01,2.88-.18,4.31-.21,5.27-.08,10.55-.12,15.82-.2,6.67-.1,13.34-.23,20-.32,5.54-.07,11.07-.1,16.61-.13,2.48-.01,4.95.03,7.43,0,4.23-.05,8.47-.15,12.7-.18,2.39-.02,4.77.09,7.16.07,1.71-.02,3.44-.19,5.16-.26,2.08-.08,4.16-.09,6.24-.17.26,0,.52-.23.81-.37,1.32.07,2.78.21,4.25.23,1.79.02,3.59-.05,5.38-.08,4.15-.07,8.31-.13,12.46-.22.44,0,.89-.17,1.33-.27l-.29-1.3s.21-.14.41-.27c.12.12.22.19.26.28.42.98.59,1.77,2.48,1.54,3.24-.39,6.54-.12,9.82-.14,5.79-.04,11.59-.08,17.38-.14,4.19-.05,8.39-.11,12.59-.21.82-.02,1.41.08,1.4,1Z"/><path class="cls-1" d="M167.96,125.49c0-.92-.58-1.02-1.4-1-4.2.1-8.39.16-12.59.21-5.8.06-11.59.1-17.38.14-3.28.02-6.57-.24-9.82.14-1.9.23-2.06-.56-2.48-1.54-.04-.09-.14-.15-.26-.28-.2.13-.38.25-.41.27l.29,1.3c-.44.09-.89.26-1.33.27-4.15.09-8.31.15-12.46.22-1.79.03-3.59.1-5.38.08-1.47-.02-2.93-.15-4.25-.23-.29.14-.55.36-.81.37-2.08.08-4.16.09-6.24.17-1.72.06-3.44.24-5.16.26-2.39.03-4.77-.09-7.16-.07-4.23.03-8.47.14-12.7.18-2.48.03-4.95-.02-7.43,0-5.54.03-11.07.06-16.61.13-6.67.08-13.34.22-20,.32-5.27.08-10.55.12-15.82.2-1.43.02-2.88.19-4.31.21-1.1.01-2.19-.11-3.22-.17-.01-3.71-.03-7.29-.03-10.88,0-1.22.02-2.44.1-3.66.11-1.86.34-3.72.41-5.58.04-1.18-.13-2.35-.2-3.53-.04-.71-.19-1.44-.05-2.13.22-1.06-.43-1.74-.93-2.52-.21-.32-.31-.74-.31-1.13,0-2.86-.12-5.72.15-8.57.13-1.43.79-2.89,1.2-4.33.59-2.09.7-4.27.94-6.41.09-.85-.09-1.71-.03-2.57.05-.75.35-1.5.4-2.25.1-1.38.14-2.76.14-4.14,0-1.88-.07-3.76-.06-5.65,0-.27.38-.56.42-.84.05-.39-.05-.79-.1-1.18-.03-.27-.17-.56-.12-.82.31-1.51.87-3.02.96-4.53.14-2.29-.15-4.57-.03-6.86.08-1.59.53-3.19.82-4.78.02-.14.1-.28.08-.41-.42-2.25.58-4.48.62-6.72.03-1.91.21-3.83.17-5.73-.03-1.17-.45-2.31-.52-3.48-.05-.89.22-1.8.26-2.7.09-2.02.03-4.05.21-6.07.11-1.29.56-2.58.82-3.87.11-.54.62-1-.11-1.64-.41-.36.06-1.52.23-2.32.08-.4.37-.78.59-1.21-.41-.42-.78-.81-.08-1.47.28-.27.11-.98-.02-1.45-.14-.49-.53-.91-.7-1.39-.08-.24.07-.55.13-.83,0-.03.07-.04.09-.07.43-.61.21-1.53,1.5-1.72.92-.13,1.77-.72,2.69-.94.89-.21,1.83-.25,2.74-.26,7.84-.07,15.68-.11,23.51-.15,5.84-.03,11.67-.02,17.51-.06,4.28-.03,8.56-.13,12.84-.17,3.56-.03,7.12-.03,10.68-.05,4.64-.02,9.28-.08,13.91-.06,7.67.03,15.34.12,23.01.15,12.88.06,25.75.08,38.63.15,11.99.07,23.99.19,35.98.27,7.56.05,15.11.09,22.67.09,6.4,0,12.8-.03,19.2-.11,8.76-.12,17.53-.3,26.29-.46,7.17-.13,14.34-.25,21.5-.41,5.16-.11,10.32-.29,15.48-.4,7.41-.16,14.81-.29,22.22-.43,6.92-.13,13.84-.32,20.76-.36,3.71-.03,7.41.22,11.12.28,3.35.06,6.7.02,10.05.06,11.54.12,23.09.26,34.63.37,7.03.07,14.07.08,21.11.12,10.39.06,20.79.13,31.18.18,5.51.03,11.03.04,16.55.02,1.21,0,1.88.53,2.43,1.32,3.71,5.34,7.4,10.69,11.14,16.01,4.69,6.68,9.42,13.34,14.13,20.02,5.03,7.13,9.97,14.32,15.16,21.37,1.3,1.76,1.38,3.36.94,5.35-.44,2.03-.41,4.1-.61,6.16-.13,1.29-.34,2.57-.45,3.86-.18,2.15-.27,4.3-.45,6.46-.13,1.51-.38,3.01-.5,4.52-.03.37.37.75.34,1.12-.16,1.98-.11,4.02-.73,5.92-.32.99-.15,1.66.07,2.48.45,1.66.15,3.23-.65,4.92-.66,1.4-1.24,2.99-.37,4.57.29.52-.08,1.34-.15,2.03-.06.55-.15,1.1-.17,1.65-.01.26.19.52.16.78-.28,2.15-.6,4.3-.91,6.45-.19,1.3-.48,2.61-.56,3.91-.08,1.25.02,2.5.12,3.74.07.85-.02,1.44-1.27,1.44-2.94-.01-5.87,0-8.81.04-1.99.03-3.99.18-5.98.19-1.66.01-3.32-.12-4.98-.13-2.78-.01-5.56.05-8.34.04-2.14,0-4.27-.11-6.41-.13-5.01-.05-10.03-.06-15.05-.11-4.02-.04-8.03-.14-12.04-.16-6.04-.03-12.09-.02-18.13-.02-5.18,0-10.37,0-15.55-.03-3.14-.02-6.27-.07-9.41-.11-3.93-.05-7.85-.14-11.78-.14-1.66,0-3.33.18-4.99.28-.24.01-.48.02-.72,0-1.96-.15-3.91-.39-5.88-.44-4.02-.11-8.05-.14-12.08-.16-3.86-.02-7.73.05-11.59.02-2.98-.02-5.95-.15-8.94-.18-3.66-.04-7.33.03-10.98-.05-3.38-.08-6.73-.35-10.11-.45-2.25-.07-4.53.07-6.78.02-4.6-.11-9.21-.24-13.8-.43-5.4-.23-10.79-.61-16.2-.76-6.13-.17-12.28-.13-18.41-.22-2.59-.04-5.16-.26-7.75-.29-4.29-.04-8.59-.03-12.89.03-4.07.05-8.14.16-12.21.29-3.04.1-6.08.28-9.11.4-1.77.07-3.53.07-5.3.14-2.5.1-5.01.22-7.51.34-4.6.21-9.21.46-13.81.63-4.6.17-9.19.26-13.79.37-3.44.08-6.87.13-10.31.22-.94.02-1.89.11-2.33,1.21Z"/></svg>