<?xml version="1.0" encoding="UTF-8"?>
<svg id="Layer_2" data-name="Layer 2" xmlns="http://www.w3.org/2000/svg" viewBox="0 0 336.1 375.99">
  <g id="Layer_1-2" data-name="Layer 1">
    <g>
      <path d="m266.97,0c-.49.19-.8.27-1.09.42-2.99,1.55-6.01,3.02-8.94,4.67-5.14,2.89-10.19,5.93-15.33,8.81-5.96,3.34-12.01,6.53-17.96,9.89-6.43,3.62-12.79,7.36-19.19,11.03-5.36,3.08-10.75,6.11-16.11,9.21-5.29,3.06-10.54,6.19-15.81,9.27-3.22,1.88-6.47,3.69-9.68,5.57-5.62,3.29-11.21,6.62-16.83,9.9-5.87,3.43-11.76,6.83-17.65,10.23-6.11,3.52-12.24,6.99-18.35,10.51-3.6,2.08-7.17,4.22-10.75,6.32-6.05,3.55-12.1,7.1-18.17,10.62-.33.19-.94.28-1.24.1-3.22-1.85-6.41-3.75-9.59-5.66-4.07-2.45-8.12-4.93-12.19-7.38-1.1-.66-1.31-.48-1.86.66-.53,1.1-1.28,2.1-1.91,3.16-.38.63-.86,1.24-1.04,1.93-.42,1.58-.83,3.24-2.01,4.32-1.1,1.01-1.51,2.2-1.89,3.5-.08.27-.17.57-.35.77-1.7,1.8-2.99,3.8-3.39,6.31-.07.44-.46.87-.78,1.23-.31.36-.76.6-1.09.95-.47.5-1.16,1.01-1.28,1.6-.44,2.2-1.62,4-2.69,5.89-1.07,1.88-2.03,3.83-2.97,5.78-.54,1.12-.93,2.33-1.45,3.46-.17.36-.52.7-.87.91-2.35,1.42-4.75,2.77-7.09,4.21-3.73,2.29-7.42,4.63-11.15,6.92-.55.34-.73.68-.35,1.21,1.11,1.53,1.26,3.69,3.11,4.75.18.1.2.48.28.73.06.18.03.41.14.54.68.86,1.32,1.77,2.11,2.52,1.44,1.36.91,2.77.17,4.11-1.66,3-3.32,6.01-5.18,8.88-1.49,2.3-3.29,4.41-4.94,6.61-.21.28-.48.55-.59.87-.33.9-.59,1.83-2,1.6.83.99,1.63,1.9,2.56,2.64.61.48.73.83.19,1.38-.73.74-1.57,1.4-2.15,2.24-.55.79-.89,1.65-2.11,1.42-.2-.04-.47.26-.67.38.19.56.6,1.14.46,1.51-.48,1.25-.21,2.35.16,3.56.31,1.02.31,2.15.42,3.23.01.13-.1.26-.15.4-.78,1.84-2.38,3.16-3,5.17-.49,1.6-1.69,2.98-2.5,4.49-.22.4-.19.93-.28,1.4-.05-.01-.1-.01-.14-.02v1.87c-.53-.25-.83-.39-1.07-.5-.26.59-.48,1.09-.74,1.7.34.31.67.71,1.08.97,3.35,2.14,6.68,4.31,10.08,6.37,4.82,2.92,9.69,5.76,14.56,8.6,4.14,2.42,8.31,4.8,12.46,7.21,1.84,1.07,3.67,2.18,5.5,3.27,8.48,5.05,16.98,10.08,25.44,15.16,5.86,3.52,11.66,7.14,17.52,10.66,10.07,6.05,20.18,12.05,30.26,18.09,5.46,3.27,10.85,6.65,16.33,9.88,9.99,5.9,20.03,11.73,30.05,17.59,5.49,3.21,11.01,6.4,16.48,9.64,3.51,2.08,6.97,4.28,10.47,6.38,8.4,5.06,16.82,10.08,25.21,15.15,6.75,4.07,13.46,8.21,20.22,12.27,5.4,3.24,10.83,6.41,16.26,9.58,6.55,3.82,13.1,7.65,19.7,11.38,3.64,2.06,7.37,3.95,11.09,5.85.35.18,1.15.03,1.4-.26.63-.74,1.11-1.62,1.58-2.48.85-1.58.78-1.86-.44-3.04-.03-.03,0-.13.01-.27.4.04.84.2,1.18.08.5-.16.96-.48,1.38-.81.29-.22.65-.53.69-.85.41-2.87.34-5.74-.36-8.56-.11-.44-.55-.83-.92-1.15-.55-.49-1.16-.9-1.6-1.23.34-.64.61-1.1.83-1.57.71-1.52,1.3-3.11,2.12-4.57.9-1.6,2.01-3.09,3.02-4.63.12-.18.28-.39.27-.57-.09-1.75.68-3.13,1.58-4.58,1.76-2.84,3.28-5.82,4.91-8.74.29-.52.66-1.01.95-1.53,1.21-2.21,1.55-4.88,3.63-6.65.45-.38.5-1.19.88-1.68,1.62-2.07,2.73-4.39,3.69-6.83.76-1.92,1.82-3.74,2.86-5.54.41-.71.43-1.2-.22-1.66-.43-.31-.91-.56-1.36-.86-.26-.17-.56-.35-.7-.61-.67-1.17-.13-3.15,1.08-3.9-.3-.48-.5-1.09-.92-1.43-1.24-1-1.45-2.03-.57-3.39.31-.48.55-1,.78-1.52.43-.97.65-2.08,1.87-2.48.19-.06.31-.41.4-.65.16-.41.23-.87.44-1.26.33-.64.77-1.22,1.11-1.86.82-1.53,1.61-3.07,2.42-4.61.03-.06.09-.11.12-.18.42-.95.84-1.9,1.26-2.85.28-.63.28-1.41,1.26-1.56.31-.05.6-.58.79-.94.34-.64.6-1.31.88-1.98.25-.59.61-1.16.69-1.77.26-2.08.89-2.86,2.89-3.46.2-.06.43-.39.46-.62.42-2.98,2.12-5.29,3.79-7.67.96-1.38,1.81-2.94,2.24-4.55.23-.89.34-1.24,1.14-1.11.47-.97.91-1.88,1.37-2.83-3.42-2.02-6.88-4.08-10.36-6.12-4.96-2.9-9.93-5.77-14.88-8.67-7.26-4.26-14.52-8.52-21.77-12.8-3.12-1.84-6.21-3.73-9.32-5.58-3.81-2.27-7.64-4.51-11.44-6.78-2.59-1.54-5.15-3.14-7.75-4.67-3.61-2.13-7.03-4.56-10.81-6.42-.52-.26-.86-.88-1.38-1.17-1.47-.83-3.01-1.53-4.47-2.38-2.98-1.75-5.91-3.56-8.86-5.36-1.55-.95-3.07-1.92-4.66-2.8-3.22-1.81-6.33-3.83-9.47-5.79-2.78-1.73-5.55-3.49-8.32-5.25-.7-.45-.7-.93-.02-1.4,2.06-1.45,4.51-2.23,6.48-3.84.03-.02.07-.02.1-.03,2.32-1.27,4.67-2.5,6.96-3.84,1.9-1.11,3.7-2.39,5.6-3.49,3.06-1.77,6.19-3.43,9.26-5.19,3.04-1.74,6.03-3.56,9.06-5.31,4.28-2.47,8.6-4.89,12.88-7.35,3.66-2.11,7.28-4.28,10.94-6.37,3.85-2.2,7.73-4.34,11.59-6.52,2.16-1.22,4.31-2.44,6.46-3.67.75-.43,1.46-.93,2.22-1.34,2.75-1.5,5.53-2.94,8.26-4.47,1.34-.75,2.55-1.73,3.87-2.51,2.36-1.39,4.75-2.75,7.15-4.07,2.54-1.4,5.13-2.72,7.67-4.12,3.03-1.66,6.03-3.36,9.05-5.04.66-.37,1.32-.74,1.96-1.13,1.2-.73,2.36-1.51,3.58-2.2,1.29-.72,2.65-1.31,3.93-2.04,1.16-.65,1.22-1.63.57-2.8-.8-1.45-1.36-3.04-2.11-4.52-.56-1.11-1.14-2.26-1.95-3.18-.63-.72-1.79-.97-2.42-1.69-.81-.92-1.42-2.05-1.97-3.17-.57-1.14-1.42-2.19-1.39-3.57,0-.12-.11-.27-.21-.37-.63-.65-1.23-1.35-1.93-1.93-.99-.82-1.66-1.76-1.56-2.97-.67-.3-1.36-.41-1.74-.81-.87-.91-1.56-1.98-2.38-2.95-.32-.37-.76-.64-1.27-1.05-.07.53-.1.75-.13.97-.25-.07-.6-.06-.74-.22-1.49-1.72-3.05-3.4-4.39-5.23-1.22-1.68-2.2-3.53-3.28-5.32-.39-.65-.58-1.51-1.13-1.94-1.41-1.09-2.19-2.58-3.16-4-.84-1.23-1.86-2.35-2.59-3.67-.38-.69-.8-1.36-1.18-2.05s-.69-1.42-1.1-2.08c-.91-1.46-1.94-2.86-2.8-4.35-1.13-1.94-1.72-4.2-3.39-5.83-.07-.07-.09-.2-.15-.29-1.27-1.86-2.37-3.87-3.85-5.55-1.41-1.6-2.2-3.5-3.25-5.27-1.07-1.8-1.99-3.68-3.09-5.46-.64-1.04-1.48-1.94-2.23-2.91-.07-.08-.12-.18-.15-.29-.29-.86-.65-1.7-.83-2.58-.61-2.91-2.87-4.86-4.23-7.33-.78-1.4-1.39-2.73-1.68-4.28-.15-.8-.65-1.54-1.05-2.27-.38-.69-1-1.28-1.22-2-.36-1.15-.69-2.08-1.84-2.87-.91-.62-1.31-2.05-1.83-3.17-.25-.53-.31-1.21-.48-1.92Z" style="fill: #fff; stroke-width: 0px;"/>
      <path d="m266.97,0c.17.71.22,1.39.5,1.98.52,1.12.92,2.54,1.83,3.17,1.14.79,1.48,1.71,1.84,2.87.22.72.85,1.31,1.22,2,.4.73.9,1.47,1.05,2.27.3,1.56.91,2.88,1.68,4.28,1.37,2.47,3.63,4.42,4.23,7.33.18.88.55,1.72.83,2.58.03.1.09.2.15.29.75.97,1.59,1.88,2.23,2.91,1.09,1.78,2.02,3.66,3.09,5.46,1.05,1.77,1.84,3.67,3.25,5.27,1.48,1.68,2.58,3.68,3.85,5.55.06.09.08.22.15.29,1.67,1.63,2.26,3.88,3.39,5.83.86,1.49,1.89,2.88,2.8,4.35.42.67.73,1.4,1.1,2.08.38.69.8,1.36,1.18,2.05.73,1.33,1.75,2.44,2.59,3.67.97,1.42,1.74,2.91,3.16,4,.55.42.74,1.29,1.13,1.94,1.07,1.79,2.05,3.64,3.28,5.32,1.34,1.84,2.9,3.51,4.39,5.23.14.16.49.15.74.22.03-.22.06-.43.13-.97.5.41.95.67,1.27,1.05.81.96,1.51,2.04,2.38,2.95.38.4,1.07.51,1.74.81-.1,1.21.58,2.15,1.56,2.97.69.58,1.29,1.28,1.93,1.93.1.1.21.25.21.37-.02,1.38.83,2.43,1.39,3.57.55,1.11,1.16,2.25,1.97,3.17.63.72,1.79.97,2.42,1.69.81.92,1.39,2.07,1.95,3.18.75,1.48,1.31,3.07,2.11,4.52.65,1.17.59,2.15-.57,2.8-1.29.72-2.65,1.31-3.93,2.04-1.22.68-2.38,1.47-3.58,2.2-.64.39-1.3.76-1.96,1.13-3.01,1.68-6.02,3.38-9.05,5.04-2.55,1.4-5.13,2.72-7.67,4.12-2.4,1.32-4.79,2.67-7.15,4.07-1.32.78-2.53,1.76-3.87,2.51-2.73,1.54-5.51,2.97-8.26,4.47-.76.41-1.47.91-2.22,1.34-2.15,1.23-4.3,2.46-6.46,3.67-3.86,2.18-7.74,4.32-11.59,6.52-3.66,2.1-7.28,4.27-10.94,6.37-4.29,2.47-8.6,4.88-12.88,7.35-3.03,1.75-6.02,3.57-9.06,5.31-3.07,1.76-6.2,3.42-9.26,5.19-1.9,1.1-3.7,2.38-5.6,3.49-2.29,1.33-4.64,2.56-6.96,3.84-.03.02-.08.01-.1.03-1.96,1.61-4.42,2.39-6.48,3.84-.67.48-.68.96.02,1.4,2.77,1.76,5.53,3.51,8.32,5.25,3.14,1.96,6.24,3.98,9.47,5.79,1.59.89,3.11,1.86,4.66,2.8,2.95,1.8,5.88,3.61,8.86,5.36,1.45.85,3,1.55,4.47,2.38.51.29.85.91,1.38,1.17,3.77,1.85,7.2,4.29,10.81,6.42,2.6,1.53,5.16,3.13,7.75,4.67,3.81,2.27,7.63,4.52,11.44,6.78,3.11,1.85,6.2,3.74,9.32,5.58,7.25,4.28,14.51,8.54,21.77,12.8,4.95,2.9,9.93,5.77,14.88,8.67,3.48,2.04,6.94,4.1,10.36,6.12-.46.95-.9,1.86-1.37,2.83-.8-.13-.91.22-1.14,1.11-.42,1.61-1.27,3.17-2.24,4.55-1.66,2.38-3.37,4.69-3.79,7.67-.03.23-.26.56-.46.62-2,.6-2.62,1.38-2.89,3.46-.08.61-.44,1.19-.69,1.77-.28.66-.54,1.34-.88,1.98-.19.36-.48.9-.79.94-.97.15-.98.94-1.26,1.56-.42.95-.84,1.9-1.26,2.85-.03.06-.09.12-.12.18-.8,1.54-1.6,3.08-2.42,4.61-.34.63-.78,1.22-1.11,1.86-.2.39-.27.85-.44,1.26-.09.24-.21.59-.4.65-1.22.4-1.44,1.5-1.87,2.48-.23.52-.47,1.05-.78,1.52-.88,1.35-.67,2.39.57,3.39.42.34.62.95.92,1.43-1.21.76-1.75,2.73-1.08,3.9.14.26.45.43.7.61.44.3.92.55,1.36.86.65.47.63.95.22,1.66-1.04,1.8-2.1,3.61-2.86,5.54-.96,2.44-2.07,4.76-3.69,6.83-.39.49-.43,1.3-.88,1.68-2.08,1.77-2.42,4.44-3.63,6.65-.29.53-.66,1.01-.95,1.53-1.63,2.92-3.15,5.91-4.91,8.74-.9,1.45-1.66,2.83-1.58,4.58.01.19-.16.39-.27.57-1.01,1.54-2.12,3.03-3.02,4.63-.82,1.46-1.41,3.05-2.12,4.57-.22.47-.49.92-.83,1.57.44.33,1.05.74,1.6,1.23.37.33.81.72.92,1.15.7,2.82.78,5.69.36,8.56-.04.31-.41.63-.69.85-.42.32-.88.65-1.38.81-.35.11-.78-.05-1.18-.08-.01.14-.04.24-.01.27,1.22,1.18,1.29,1.46.44,3.04-.46.87-.95,1.75-1.58,2.48-.25.29-1.05.44-1.4.26-3.72-1.9-7.45-3.79-11.09-5.85-6.6-3.73-13.15-7.56-19.7-11.38-5.44-3.17-10.87-6.35-16.26-9.58-6.76-4.06-13.47-8.19-20.22-12.27-8.39-5.06-16.81-10.09-25.21-15.15-3.5-2.11-6.95-4.3-10.47-6.38-5.47-3.25-10.99-6.43-16.48-9.64-10.02-5.86-20.06-11.69-30.05-17.59-5.48-3.24-10.88-6.61-16.33-9.88-10.08-6.04-20.19-12.04-30.26-18.09-5.86-3.52-11.66-7.14-17.52-10.66-8.46-5.08-16.96-10.11-25.44-15.16-1.83-1.09-3.66-2.2-5.5-3.27-4.15-2.41-8.32-4.79-12.46-7.21-4.87-2.85-9.74-5.69-14.56-8.6-3.4-2.06-6.73-4.23-10.08-6.37-.41-.26-.74-.66-1.08-.97.26-.6.48-1.11.74-1.7.24.11.54.25,1.07.5v-1.87c.05.01.1.01.14.02.09-.47.06-1,.28-1.4.82-1.51,2.01-2.89,2.5-4.49.62-2.01,2.22-3.33,3-5.17.06-.13.17-.27.15-.4-.12-1.08-.11-2.2-.42-3.23-.36-1.2-.64-2.31-.16-3.56.14-.37-.28-.95-.46-1.51.2-.12.46-.42.67-.38,1.22.23,1.56-.63,2.11-1.42.58-.84,1.43-1.5,2.15-2.24.54-.55.42-.89-.19-1.38-.93-.74-1.73-1.65-2.56-2.64,1.41.24,1.67-.69,2-1.6.12-.32.38-.59.59-.87,1.66-2.2,3.45-4.3,4.94-6.61,1.86-2.87,3.51-5.89,5.18-8.88.75-1.35,1.27-2.75-.17-4.11-.79-.75-1.43-1.66-2.11-2.52-.11-.13-.08-.36-.14-.54-.08-.25-.1-.63-.28-.73-1.85-1.06-2-3.22-3.11-4.75-.39-.53-.2-.88.35-1.21,3.73-2.29,7.42-4.64,11.15-6.92,2.34-1.44,4.74-2.79,7.09-4.21.35-.21.7-.55.87-.91.53-1.13.91-2.34,1.45-3.46.94-1.95,1.91-3.89,2.97-5.78,1.07-1.89,2.25-3.69,2.69-5.89.12-.6.81-1.1,1.28-1.6.33-.35.77-.59,1.09-.95.32-.37.71-.79.78-1.23.39-2.51,1.69-4.51,3.39-6.31.18-.19.27-.5.35-.77.38-1.3.79-2.49,1.89-3.5,1.18-1.09,1.6-2.75,2.01-4.32.18-.69.66-1.3,1.04-1.93.63-1.06,1.38-2.06,1.91-3.16.55-1.14.76-1.32,1.86-.66,4.07,2.45,8.12,4.93,12.19,7.38,3.18,1.91,6.37,3.81,9.59,5.66.3.17.91.09,1.24-.1,6.07-3.52,12.12-7.07,18.17-10.62,3.59-2.1,7.15-4.24,10.75-6.32,6.1-3.52,12.24-6.99,18.35-10.51,5.89-3.39,11.78-6.8,17.65-10.23,5.62-3.28,11.21-6.62,16.83-9.9,3.21-1.88,6.47-3.7,9.68-5.57,5.28-3.08,10.53-6.21,15.81-9.27,5.35-3.1,10.74-6.13,16.11-9.21,6.4-3.67,12.76-7.41,19.19-11.03,5.95-3.35,12-6.54,17.96-9.89,5.14-2.88,10.19-5.92,15.33-8.81,2.93-1.65,5.95-3.12,8.94-4.67.27-.21.59-.3,1.07-.48Z" style="stroke-width: 0px;"/>
    </g>
  </g>
</svg>