<?xml version="1.0" encoding="UTF-8"?>
<svg id="Layer_2" data-name="Layer 2" xmlns="http://www.w3.org/2000/svg" viewBox="0 0 294.93 369.18">
  <g id="Layer_1-2" data-name="Layer 1">
    <g>
      <path d="m72.21,0c-.75,1.4-1.37,2.59-2,3.76-.21.39-.35.84-.65,1.13-.69.68-1.44,1.32-2.19,1.93-2.73,2.2-4.95,4.77-6.22,8.12-.43,1.14-1.04,2.2-2.26,2.83-.65.34-1.16,1.04-1.62,1.66-.77,1.04-1.39,2.19-2.19,3.21-2.07,2.67-4.22,5.28-6.3,7.94-2.02,2.6-3.99,5.25-5.98,7.88-.78,1.03-1.49,2.14-2.38,3.07-1.74,1.82-3.58,3.54-5.37,5.32-.23.23-.44.49-.57.78-1.66,3.58-4.2,6.55-6.91,9.32-2.29,2.34-4.56,4.71-6.13,7.53-1.32,2.38-3.14,4.25-4.86,6.25-1.39,1.63-2.91,3.14-4.37,4.71-.8.85-1.6,1.7-2.41,2.54-1.85,1.92-3.7,3.83-5.54,5.76-.22.23-.4.53-.5.83-.59,1.77-1.48,3.27-3.12,4.33-.87.56-.82,1.17-.08,1.95.49.52,1.04.99,1.6,1.44,12.28,10.11,24.58,20.19,36.84,30.31,12.47,10.29,24.94,20.59,37.38,30.91,8.98,7.45,17.9,14.98,26.9,22.41,5.78,4.77,11.66,9.42,17.48,14.14.68.55,1.56.98,1.58,2.22-1.32.95-2.66,1.96-4.04,2.91-6.05,4.19-12.1,8.39-18.17,12.55-4.07,2.79-8.2,5.51-12.27,8.31-5.52,3.8-10.98,7.69-16.51,11.47-5.26,3.6-10.6,7.1-15.87,10.69-3.76,2.56-7.45,5.24-11.21,7.81-4.24,2.91-8.54,5.73-12.77,8.64-5.96,4.09-11.88,8.25-17.83,12.35-.68.47-1.54.66-2.2,1.14-1.79,1.29-3.51,2.67-5.28,3.99-1.39,1.04-2.8,2.03-4.32,3.13.62.86,1.46,1.53,1.59,2.32.31,1.78,1.43,3.03,2.31,4.45,1.13,1.82,2.15,3.71,3.4,5.45,1.38,1.92,2.06,4.05,2.85,6.23.66,1.83,2.47,3.22,3.62,4.91.78,1.13,1.7,1.7,2.92,1.51,1.72,2.28,3.38,4.42,4.97,6.61,1.33,1.82,2.64,3.65,3.85,5.55,2.06,3.24,3.95,6.59,6.09,9.78,1.52,2.26,3.35,4.31,5,6.48.55.72.96,1.55,1.46,2.3,1.76,2.64,3.51,5.3,5.32,7.91,1.75,2.53,3.31,5.21,5.39,7.5.74.82,1.33,1.68,1.81,2.7.71,1.5,1.6,2.93,2.58,4.27,1.71,2.34,3.4,4.69,4.83,7.22.56.98,1.42,1.9,1.01,3.22-.06.19.13.5.27.71,1.04,1.55,2.1,3.1,3.25,4.77,1.06-.64,1.95-1.53,3.23-1.18.1.03.31-.07.34-.15.47-1.25,1.49-.92,2.43-.88,1.88.08,3.56-.39,5.15-1.48,13.46-9.31,26.94-18.57,40.41-27.85,13.85-9.54,27.68-19.1,41.53-28.64,9.39-6.47,18.8-12.93,28.19-19.4,9.71-6.69,19.42-13.4,29.14-20.08,1.05-.72,1.92-1.81,3.38-1.82.15,0,.31-.2.45-.32,1.07-.93,2.07-1.95,3.22-2.76,2.23-1.58,4.56-3.02,6.82-4.57,6.83-4.67,13.64-9.38,20.47-14.05,9.53-6.51,19.06-13,28.6-19.49,5.44-3.7,10.89-7.4,16.33-11.1,1.02-.69,1.09-1.48.31-2.61-1.07-1.53-2.08-3.1-3.14-4.64-.62-.9-1.35-1.74-1.88-2.68-.8-1.42-1.38-2.96-2.2-4.35-1.4-2.38-2.41-5.08-5.02-6.56-.29-.17-.41-.64-.61-.98-.26-.43-.52-.86-.8-1.32-1.05.21-1.99.39-2.95.58-.92-1.52-1.78-2.94-2.78-4.59,1.08-1.26,2.16-2.54,3.26-3.8.34-.39.73-.74,1.06-1.14,1.44-1.73,2.86-3.47,4.31-5.2.25-.3.53-.76.83-.79,1.81-.19,1.6-1.72,2.08-2.74-5.04-3.98-9.99-7.89-14.94-11.78-4.96-3.9-10.02-7.69-14.89-11.7-4.83-3.98-9.95-7.62-14.6-11.98.93-.62,1.62-1.08,2.15-1.42.84-2.75-.77-4.5-1.81-6.55-2.35,1.05-4.47,2-6.75,3.02-.69-2.05-2.3-2.58-3.73-2.55-1.74-1.51-3.16-2.83-4.67-4.02-4.49-3.55-9.04-7.03-13.53-10.59-3.37-2.67-6.67-5.42-10.02-8.11-5.33-4.28-10.73-8.47-16.01-12.81-5.83-4.8-11.56-9.72-17.34-14.59-.49-.41-1.02-.77-1.45-1.09-.6.22-1.03.38-1.76.64.6-1.46.04-2.19-.86-2.91-3.47-2.75-6.88-5.57-10.32-8.37-1.67-1.36-3.33-2.72-4.99-4.09-3.36-2.79-6.69-5.6-10.06-8.37-4.62-3.81-9.29-7.57-13.88-11.41-3.9-3.25-7.71-6.61-11.6-9.88-5.33-4.48-10.71-8.9-16.06-13.36-3.65-3.05-7.3-6.1-10.92-9.18-4.41-3.76-8.79-7.57-13.21-11.32-.88-.72-1.89-1.31-3.09-2.15Z" style="fill: #fff; stroke-width: 0px;"/>
      <path d="m72.21,0c1.21.84,2.21,1.43,3.09,2.17,4.42,3.75,8.79,7.56,13.21,11.32,3.62,3.08,7.27,6.14,10.92,9.18,5.35,4.46,10.73,8.89,16.06,13.36,3.89,3.27,7.7,6.62,11.6,9.88,4.6,3.84,9.26,7.6,13.88,11.41,3.37,2.78,6.7,5.59,10.06,8.37,1.65,1.37,3.32,2.73,4.99,4.09,3.43,2.8,6.85,5.62,10.32,8.37.9.72,1.47,1.44.86,2.91.73-.27,1.16-.43,1.76-.64.43.32.96.68,1.45,1.09,5.78,4.86,11.51,9.79,17.34,14.59,5.28,4.34,10.68,8.53,16.01,12.81,3.35,2.69,6.65,5.44,10.02,8.11,4.49,3.55,9.04,7.03,13.53,10.59,1.51,1.2,2.93,2.51,4.67,4.02,1.43-.03,3.04.49,3.73,2.55,2.28-1.02,4.4-1.97,6.75-3.02,1.04,2.05,2.65,3.8,1.81,6.55-.52.35-1.21.8-2.15,1.42,4.66,4.36,9.77,8,14.6,11.98,4.87,4.01,9.93,7.8,14.89,11.7,4.96,3.89,9.9,7.8,14.94,11.78-.48,1.02-.27,2.55-2.08,2.74-.3.03-.58.49-.83.79-1.44,1.73-2.86,3.47-4.31,5.2-.33.4-.72.75-1.06,1.14-1.09,1.27-2.18,2.54-3.26,3.8,1,1.65,1.86,3.07,2.78,4.59.96-.19,1.9-.37,2.95-.58.28.46.54.89.8,1.32.2.33.32.81.61.98,2.61,1.48,3.61,4.18,5.02,6.56.83,1.4,1.41,2.94,2.2,4.35.53.95,1.27,1.78,1.88,2.68,1.05,1.54,2.07,3.11,3.14,4.64.79,1.13.71,1.92-.31,2.61-5.45,3.7-10.89,7.4-16.33,11.1-9.54,6.49-19.08,12.98-28.6,19.49-6.83,4.67-13.64,9.38-20.47,14.05-2.26,1.55-4.59,2.99-6.82,4.57-1.15.81-2.15,1.84-3.22,2.76-.14.12-.3.32-.45.32-1.45.01-2.33,1.1-3.38,1.82-9.73,6.68-19.43,13.39-29.14,20.08-9.39,6.47-18.8,12.93-28.19,19.4-13.85,9.54-27.68,19.1-41.53,28.64-13.47,9.28-26.96,18.55-40.41,27.85-1.58,1.1-3.27,1.57-5.15,1.48-.94-.04-1.96-.38-2.43.88-.03.09-.24.18-.34.15-1.28-.35-2.17.54-3.23,1.18-1.14-1.68-2.21-3.22-3.25-4.77-.14-.21-.33-.52-.27-.71.41-1.32-.45-2.24-1.01-3.22-1.43-2.52-3.12-4.88-4.83-7.22-.98-1.34-1.87-2.78-2.58-4.27-.48-1.02-1.07-1.88-1.81-2.7-2.08-2.29-3.64-4.97-5.39-7.5-1.81-2.61-3.56-5.27-5.32-7.91-.51-.76-.92-1.58-1.46-2.3-1.65-2.17-3.48-4.22-5-6.48-2.14-3.19-4.02-6.54-6.09-9.78-1.21-1.9-2.52-3.73-3.85-5.55-1.6-2.19-3.25-4.33-4.97-6.61-1.22.19-2.15-.38-2.92-1.51-1.16-1.69-2.97-3.08-3.62-4.91-.79-2.19-1.47-4.32-2.85-6.23-1.25-1.73-2.27-3.63-3.4-5.45-.88-1.42-2-2.67-2.31-4.45-.14-.79-.98-1.46-1.59-2.32,1.52-1.1,2.94-2.1,4.32-3.13,1.77-1.32,3.49-2.71,5.28-3.99.66-.48,1.53-.67,2.2-1.14,5.95-4.1,11.87-8.25,17.83-12.35,4.24-2.91,8.53-5.73,12.77-8.64,3.76-2.58,7.45-5.25,11.21-7.81,5.27-3.59,10.6-7.09,15.87-10.69,5.53-3.79,10.99-7.67,16.51-11.47,4.07-2.8,8.19-5.52,12.27-8.31,6.07-4.16,12.12-8.36,18.17-12.55,1.38-.95,2.72-1.96,4.04-2.91-.02-1.24-.91-1.67-1.58-2.22-5.82-4.72-11.7-9.37-17.48-14.14-9-7.43-17.91-14.96-26.9-22.41-12.44-10.32-24.91-20.62-37.38-30.91-12.27-10.12-24.56-20.21-36.84-30.31-.55-.46-1.1-.92-1.6-1.44-.73-.78-.78-1.39.08-1.95,1.64-1.06,2.52-2.56,3.12-4.33.1-.3.28-.6.5-.83,1.84-1.93,3.69-3.84,5.54-5.76.81-.84,1.61-1.69,2.41-2.54,1.47-1.56,2.98-3.08,4.37-4.71,1.71-2,3.54-3.87,4.86-6.25,1.57-2.83,3.84-5.2,6.13-7.53,2.71-2.77,5.25-5.74,6.91-9.32.13-.29.34-.56.57-.78,1.79-1.77,3.63-3.49,5.37-5.32.89-.93,1.6-2.04,2.38-3.07,1.99-2.63,3.96-5.28,5.98-7.88,2.07-2.67,4.23-5.27,6.3-7.94.79-1.02,1.41-2.17,2.19-3.21.46-.62.97-1.32,1.62-1.66,1.22-.63,1.83-1.69,2.26-2.83,1.26-3.34,3.49-5.91,6.22-8.12.76-.61,1.5-1.24,2.19-1.93.3-.3.44-.75.65-1.13.63-1.19,1.25-2.37,2-3.78Zm121.73,154.63c.74-.47,1.41-.96,2.14-1.35.74-.39,1.55-.65,2.31-1.02.64-.32,1.67,0,2.06-1.27-1.01.29-1.83.44-2.58.75-2.2.9-4.76,1.29-5.83,3.89-.05.11-.08.24-.17.52.43.63.93,1.35,1.53,2.23.75-.6,1.32-1.06,1.98-1.59-.52-.79-.94-1.42-1.44-2.16Zm20.76-11.45c-.88-.73-1.64-1.37-2.43-2.02-.56.47-1,.83-1.41,1.17,1.38,2.8,1.64,2.87,3.84.85Zm-53.76,26.69c-.65-.75-1.25-1.45-1.93-2.23-.82.48-1.51.88-2.28,1.33.43.7.67,1.21,1.54,1.04.77-.15,1.58-.09,2.67-.14Zm11.66-5.89v-4.29c-1.05,2.26-.99,3.4,0,4.29Zm-36.86,14.8c.99-.56,1.98-1.12,2.97-1.68-1,.58-2.58.07-2.97,1.68Zm-72.34,182.95c-.58-.12-1.2-.33-1.3.76.55-.32.93-.54,1.3-.76Zm73.61-182.27c-.06.1-.12.19-.18.29.5.14,1,.28,1.49.42.02-.09.05-.17.07-.26-.46-.15-.92-.3-1.38-.45Z" style="fill: red; stroke-width: 0px;"/>
      <path d="m193.94,154.63c.5.75.92,1.37,1.44,2.15-.66.53-1.23.99-1.98,1.59-.6-.88-1.09-1.59-1.53-2.23.09-.28.12-.4.17-.52,1.06-2.61,3.63-2.99,5.83-3.89.75-.31,1.57-.46,2.58-.75-.39,1.27-1.42.95-2.06,1.27-.75.38-1.56.63-2.31,1.02-.73.39-1.4.88-2.14,1.36Z" style="fill: #fff; stroke-width: 0px;"/>
      <path d="m214.7,143.18c-2.2,2.03-2.46,1.95-3.83-.85.41-.34.84-.7,1.41-1.17.77.65,1.54,1.28,2.42,2.02Z" style="fill: #fff; stroke-width: 0px;"/>
      <path d="m160.94,169.87c-1.09.05-1.9-.01-2.67.14-.86.17-1.11-.34-1.54-1.04.77-.45,1.46-.85,2.28-1.33.68.78,1.28,1.48,1.93,2.23Z" style="fill: #fff; stroke-width: 0px;"/>
      <path d="m172.6,163.98c-.99-.89-1.05-2.03,0-4.29v4.29Z" style="fill: #fff; stroke-width: 0px;"/>
      <path d="m135.74,178.78c.4-1.61,1.97-1.1,2.97-1.68-1,.56-1.98,1.12-2.97,1.68Z" style="fill: #fff; stroke-width: 0px;"/>
      <path d="m63.4,361.73c-.37.22-.75.44-1.3.76.1-1.08.73-.88,1.3-.76Z" style="fill: #fff; stroke-width: 0px;"/>
      <path d="m137.01,179.46c.46.15.92.3,1.39.46-.02.09-.05.17-.07.26-.5-.14-1-.28-1.49-.42.05-.11.11-.21.17-.3Z" style="fill: #fff; stroke-width: 0px;"/>
    </g>
  </g>
</svg>